#!OML:ASF E:\Style4\Style4.ASF
:FULLY-SPECIFIED
:DEGREES
3464
root -0.0260751 17.0384 -1.27227 -1.45409 1.9317 4.76085
lowerback 13.8081 2.6892 -1.33137
upperback 7.16549 3.38651 -0.398292
thorax -0.243013 1.67205 -0.130036
lowerneck 0.71809 -3.67227 -4.41454
upperneck 4.95027 -4.99596 3.32083
head 1.64081 -2.51385 1.73354
rclavicle 2.16675e-014 -2.54444e-014
rhumerus 24.6006 -18.9462 -52.1199
rradius 107
rwrist -1.11182
rhand 2.91616 8.27444
rfingers 7.12502
rthumb 28.3804 -19.5942
lclavicle 2.16675e-014 -2.54444e-014
lhumerus 20.2088 13.2162 45.1307
lradius 114.032
lwrist 9.13432
lhand -0.137398 27.4344
lfingers 7.12502
lthumb 25.4588 55.754
rfemur -23.0884 -4.62723 13.5617
rtibia 50.8968
rfoot -23.8439 -16.1201
rtoes -13.9013
lfemur -21.6627 1.46154 -23.2321
ltibia 46.2155
lfoot -22.3774 7.97239
ltoes -14.477
3465
root -0.0259151 17.0429 -1.26925 -1.35547 1.89551 4.76295
lowerback 13.7117 2.69834 -1.35368
upperback 7.10343 3.3969 -0.412181
thorax -0.257572 1.67698 -0.130627
lowerneck 0.841821 -3.67156 -4.33957
upperneck 4.75319 -4.99361 3.23602
head 1.55039 -2.5133 1.69596
rclavicle -1.39149e-014 9.54166e-015
rhumerus 24.4425 -18.8067 -52.1769
rradius 107.014
rwrist -1.05407
rhand 2.98738 8.29058
rfingers 7.12502
rthumb 28.4485 -19.5667
lclavicle -1.39149e-014 9.54166e-015
lhumerus 20.0465 13.1193 45.0854
lradius 114.127
lwrist 9.19982
lhand -0.0386393 27.3632
lfingers 7.12502
lthumb 25.5534 55.6693
rfemur -23.1558 -4.57192 13.5712
rtibia 50.8369
rfoot -23.8949 -16.08
rtoes -13.6949
lfemur -21.6946 1.47045 -23.2276
ltibia 46.1221
lfoot -22.3308 7.74215
ltoes -13.4389
3466
root -0.0250684 17.0463 -1.26683 -1.28143 1.88302 4.79593
lowerback 13.644 2.71354 -1.3607
upperback 7.04839 3.41625 -0.453171
thorax -0.277442 1.68734 -0.17025
lowerneck 0.81474 -3.66778 -4.26535
upperneck 4.72838 -4.98676 3.21302
head 1.54368 -2.50872 1.67524
rclavicle -5.10877e-014 0
rhumerus 24.299 -18.7309 -52.1618
rradius 106.984
rwrist -1.03144
rhand 3.15028 8.31179
rfingers 7.12502
rthumb 28.6042 -19.5194
lclavicle -5.10877e-014 0
lhumerus 19.9809 13.0068 45.0268
lradius 114.191
lwrist 9.26494
lhand 0.0338922 27.1865
lfingers 7.12502
lthumb 25.6228 55.4826
rfemur -23.2047 -4.53246 13.5356
rtibia 50.7692
rfoot -23.9612 -16.1478
rtoes -13.8314
lfemur -21.7369 1.47084 -23.2792
ltibia 46.072
lfoot -22.2275 7.81289
ltoes -14.0375
3467
root -0.0246704 17.0477 -1.26747 -1.24066 1.84169 4.79191
lowerback 13.6329 2.70498 -1.36175
upperback 7.01068 3.40429 -0.460598
thorax -0.310762 1.68152 -0.176343
lowerneck 0.784707 -3.61484 -4.27136
upperneck 4.64272 -4.91362 3.20553
head 1.51837 -2.4722 1.675
rclavicle -1.05356e-014 -2.46493e-014
rhumerus 24.2859 -18.6207 -52.1632
rradius 106.905
rwrist -1.13378
rhand 3.56386 8.42909
rfingers 7.12502
rthumb 28.9992 -19.3348
lclavicle -1.05356e-014 -2.46493e-014
lhumerus 19.8387 12.9699 44.91
lradius 114.241
lwrist 9.22569
lhand 0.0989671 27.0428
lfingers 7.12502
lthumb 25.6852 55.3299
rfemur -23.2538 -4.47684 13.5404
rtibia 50.7165
rfoot -23.9787 -16.2046
rtoes -13.9441
lfemur -21.7855 1.51906 -23.2833
ltibia 46.0517
lfoot -22.0654 7.98531
ltoes -15.0113
3468
root -0.0242887 17.048 -1.26908 -1.19951 1.80848 4.78729
lowerback 13.6468 2.67759 -1.39041
upperback 6.9707 3.36404 -0.445577
thorax -0.362453 1.66051 -0.141122
lowerneck 0.759279 -3.55836 -4.35865
upperneck 4.55068 -4.8366 3.22782
head 1.49361 -2.4347 1.69884
rclavicle 1.15295e-014 -1.11319e-014
rhumerus 24.3183 -18.469 -52.137
rradius 106.854
rwrist -1.22587
rhand 3.80987 8.50882
rfingers 7.12502
rthumb 29.2342 -19.2144
lclavicle 1.15295e-014 -1.11319e-014
lhumerus 19.6313 12.9486 44.7425
lradius 114.304
lwrist 9.27252
lhand -0.0228172 27.0494
lfingers 7.12502
lthumb 25.5685 55.3533
rfemur -23.3111 -4.45885 13.5525
rtibia 50.6874
rfoot -23.9251 -16.254
rtoes -14.1433
lfemur -21.8471 1.53043 -23.2743
ltibia 46.0563
lfoot -22.0037 8.01494
ltoes -14.9053
3469
root -0.0233939 17.0491 -1.27005 -1.16463 1.78211 4.78733
lowerback 13.652 2.70087 -1.38252
upperback 6.94862 3.39488 -0.459307
thorax -0.387397 1.67641 -0.164954
lowerneck 0.674545 -3.56431 -4.33598
upperneck 4.49555 -4.84136 3.24198
head 1.49067 -2.4358 1.69822
rclavicle -3.97569e-016 2.06736e-014
rhumerus 24.2764 -18.4701 -52.03
rradius 106.823
rwrist -1.25703
rhand 3.90355 8.45758
rfingers 7.12502
rthumb 29.3236 -19.2501
lclavicle -3.97569e-016 2.06736e-014
lhumerus 19.6554 12.8376 44.636
lradius 114.354
lwrist 9.35443
lhand -0.129585 27.075
lfingers 7.12502
lthumb 25.4662 55.3935
rfemur -23.3683 -4.44704 13.5591
rtibia 50.7011
rfoot -23.8567 -16.2692
rtoes -14.1077
lfemur -21.8844 1.53335 -23.2728
ltibia 46.0642
lfoot -22.0669 8.02045
ltoes -14.8884
3470
root -0.0202989 17.0504 -1.27136 -1.14842 1.77764 4.72264
lowerback 13.6829 2.70228 -1.28484
upperback 6.92337 3.40722 -0.45858
thorax -0.425106 1.685 -0.222743
lowerneck 0.629341 -3.5624 -4.30874
upperneck 4.436 -4.83761 3.26994
head 1.47938 -2.43269 1.70207
rclavicle 1.11319e-014 -3.97569e-015
rhumerus 24.2796 -18.4692 -51.9409
rradius 106.743
rwrist -1.25747
rhand 4.00963 8.42814
rfingers 7.12502
rthumb 29.4249 -19.2617
lclavicle 1.11319e-014 -3.97569e-015
lhumerus 19.7167 12.8088 44.5748
lradius 114.345
lwrist 9.27533
lhand -0.0400714 27.202
lfingers 7.12502
lthumb 25.552 55.5083
rfemur -23.393 -4.48027 13.6293
rtibia 50.746
rfoot -23.7817 -16.1819
rtoes -13.7472
lfemur -21.9152 1.50681 -23.2133
ltibia 46.0787
lfoot -22.1297 8.08359
ltoes -15.2114
